<?xml version="1.0" encoding="UTF-8"?>
<svg xmlns="http://www.w3.org/2000/svg" xmlns:xlink="http://www.w3.org/1999/xlink" width="100px" height="100px" viewBox="0 0 100 100" version="1.1">
<g id="surface1">
<path style=" stroke:none;fill-rule:nonzero;fill:rgb(0%,0%,0%);fill-opacity:1;" d="M 40.417969 4.125 C 27.707031 6.957031 17.292969 14 10.125 24.667969 C -2.417969 43.457031 0.0820312 68.667969 16.082031 84.75 C 20.875 89.582031 28.167969 94.25 33.667969 96.042969 C 35.707031 96.707031 35.957031 96.707031 36.875 96.082031 C 37.875 95.417969 37.917969 95.25 37.917969 90.457031 L 37.917969 85.542969 L 34.25 85.75 C 29.957031 85.957031 26.625 85.207031 24.625 83.5 C 23.917969 82.917969 22.542969 80.917969 21.582031 79.082031 C 20 76 18.832031 74.582031 15.582031 71.707031 C 14.5 70.75 14.457031 70.707031 15.207031 70.167969 C 17 68.832031 20.625 70.125 22.917969 72.875 C 26.917969 77.75 28.457031 79.042969 30.75 79.542969 C 32.792969 79.957031 34.667969 79.792969 37.5 78.957031 C 37.875 78.832031 38.375 77.957031 38.625 76.957031 C 38.875 76 39.542969 74.542969 40.082031 73.75 L 41.082031 72.292969 L 37.707031 71.625 C 30.625 70.167969 26.25 67.625 23.375 63.292969 C 20.707031 59.292969 19.832031 55.832031 19.792969 49.375 C 19.792969 43.292969 20.457031 40.792969 23.082031 37.375 C 24.25 35.875 24.375 35.417969 24.042969 34.542969 C 23.417969 33.042969 23.582031 26.707031 24.25 24.792969 C 24.792969 23.375 25.082031 23.125 26.207031 23 C 28.082031 22.792969 31.582031 24 35.125 26 L 38.167969 27.75 L 40.832031 27.125 C 44.625 26.25 56 26.292969 59.417969 27.125 L 62 27.792969 L 64.417969 26.332031 C 67.625 24.417969 71.707031 22.917969 73.75 22.917969 C 75.375 22.917969 75.375 22.957031 76.042969 25.082031 C 76.75 27.542969 76.875 32 76.25 34.125 C 75.917969 35.375 76 35.75 76.917969 36.957031 C 81.457031 42.957031 81.957031 52.917969 78.125 61.082031 C 75.542969 66.457031 70.082031 70.207031 62.75 71.582031 L 59.25 72.25 L 60.542969 74.542969 L 61.875 76.875 L 62 86.167969 L 62.167969 95.457031 L 63.207031 96.125 C 64.167969 96.75 64.375 96.75 66.375 96.042969 C 69.707031 94.917969 75.417969 91.832031 78.542969 89.457031 C 97.125 75.542969 103.125 50.582031 92.832031 29.832031 C 86.792969 17.625 75.375 8.25 62.292969 4.75 C 56.582031 3.25 45.832031 2.917969 40.417969 4.125 Z M 40.417969 4.125 "/>
</g>
</svg>
