<svg xmlns="http://www.w3.org/2000/svg" width="2000" height="2000" viewBox="0 0 2000 2000" version="1.1"><path d="M 1342 496.702 C 1342 498.177, 1341.225 498.233, 1314.750 498.665 C 1297.153 498.951, 1290 498.750, 1290 497.967 C 1290 497.361, 1289.213 497.099, 1288.250 497.386 C 1287.287 497.672, 1280.485 498.200, 1273.134 498.560 C 1263.328 499.040, 1259.151 498.884, 1257.451 497.974 C 1256.117 497.260, 1254.364 497.063, 1253.317 497.509 C 1251.821 498.147, 1130.584 499.357, 1056.750 499.471 L 1038 499.500 1038 578.635 L 1038 657.770 1069.250 658.475 C 1086.438 658.863, 1113.647 659.028, 1129.716 658.840 C 1150.796 658.595, 1158.593 658.803, 1157.716 659.586 C 1157.047 660.184, 1149.750 666.460, 1141.500 673.532 C 1133.250 680.605, 1124.235 688.441, 1121.467 690.946 C 1115.650 696.210, 1105.652 704.969, 1098.610 710.970 C 1095.921 713.261, 1093.172 715.668, 1092.502 716.318 C 1091.334 717.450, 1082.327 725.435, 1071.428 735 C 1068.608 737.475, 1060.608 744.394, 1053.650 750.375 C 1046.693 756.357, 1041 761.644, 1041 762.125 C 1041 762.606, 1040.325 763, 1039.500 763 C 1038.175 763, 1038 777.110, 1038 883.993 L 1038 1004.987 1040.648 1002.743 C 1042.104 1001.510, 1044.692 999.215, 1046.398 997.644 C 1048.104 996.072, 1054.450 990.597, 1060.500 985.476 C 1066.550 980.355, 1078.059 970.616, 1086.077 963.833 C 1094.094 957.050, 1110.069 943.424, 1121.577 933.554 C 1159.386 901.125, 1176.449 886.530, 1178.922 884.500 C 1183.267 880.934, 1197.486 868.586, 1198 867.932 C 1198.275 867.582, 1201.200 865.107, 1204.500 862.433 C 1207.800 859.758, 1211.625 856.578, 1213 855.365 C 1214.375 854.153, 1222.475 847.217, 1231 839.952 C 1239.525 832.687, 1247.215 826.013, 1248.089 825.121 C 1248.963 824.230, 1252.113 821.424, 1255.089 818.887 C 1272.890 803.713, 1277.665 799.582, 1279.085 798.126 C 1279.957 797.231, 1282.825 794.700, 1285.458 792.500 C 1288.092 790.300, 1291.507 787.263, 1293.046 785.750 C 1294.586 784.237, 1296.331 783, 1296.923 783 C 1297.515 783, 1298 782.626, 1298 782.170 C 1298 781.713, 1299.912 779.945, 1302.250 778.241 C 1304.588 776.536, 1308.975 772.885, 1312 770.127 C 1315.025 767.369, 1317.959 764.749, 1318.520 764.306 C 1319.080 763.863, 1321.353 761.925, 1323.571 760 C 1325.788 758.075, 1330.271 754.250, 1333.533 751.500 C 1347.856 739.425, 1354.735 733.477, 1358 730.344 C 1364.376 724.225, 1370.455 718.806, 1373.941 716.136 C 1375.833 714.686, 1378.355 712.600, 1379.544 711.500 C 1380.733 710.400, 1383.910 707.451, 1386.603 704.946 C 1389.296 702.442, 1396.225 696.339, 1402 691.385 C 1407.775 686.431, 1420.150 675.813, 1429.500 667.789 C 1438.850 659.766, 1447.708 651.919, 1449.185 650.351 C 1450.662 648.783, 1453.362 646.262, 1455.185 644.750 C 1457.008 643.237, 1460.503 640.200, 1462.951 638 C 1465.400 635.800, 1467.762 634, 1468.201 634 C 1468.641 634, 1469 633.422, 1469 632.716 C 1469 632.009, 1470.314 630.655, 1471.919 629.707 C 1473.525 628.758, 1477.377 625.543, 1480.480 622.562 C 1483.582 619.581, 1488.006 615.574, 1490.310 613.658 C 1492.615 611.743, 1496.873 607.886, 1499.774 605.087 C 1502.674 602.289, 1505.429 600, 1505.896 600 C 1506.363 600, 1508.612 597.975, 1510.893 595.500 C 1513.175 593.025, 1515.444 591, 1515.936 591 C 1516.428 591, 1518.613 588.975, 1520.791 586.500 C 1522.970 584.025, 1525.179 582, 1525.700 582 C 1526.222 582, 1530.215 578.629, 1534.574 574.508 C 1538.933 570.388, 1542.770 567.013, 1543.101 567.008 C 1543.432 567.004, 1545.795 564.862, 1548.353 562.250 C 1550.911 559.638, 1555.366 555.421, 1558.252 552.880 C 1565.435 546.556, 1575.745 537.173, 1579.822 533.250 C 1581.680 531.462, 1583.419 530, 1583.687 530 C 1583.954 530, 1586.590 527.525, 1589.543 524.500 C 1592.496 521.475, 1595.147 519, 1595.433 519 C 1596.544 519, 1607 508.235, 1607 507.092 C 1607 506.426, 1607.480 506.179, 1608.067 506.541 C 1609.618 507.500, 1611.857 503.950, 1611.551 501.017 C 1611.338 498.966, 1610.676 498.440, 1607.977 498.174 C 1605.703 497.950, 1604.378 498.360, 1603.751 499.480 C 1603.034 500.761, 1602.534 500.858, 1601.419 499.933 C 1600.338 499.036, 1599.666 499.033, 1598.596 499.921 C 1597.823 500.562, 1596.136 500.834, 1594.846 500.526 C 1590.736 499.544, 1585.973 499.235, 1585.547 499.923 C 1584.998 500.812, 1557.609 500.494, 1556.132 499.582 C 1555.497 499.189, 1541.369 498.989, 1524.738 499.137 C 1508.107 499.285, 1481 499.068, 1464.500 498.654 C 1448 498.240, 1415.600 497.743, 1392.500 497.549 C 1369.400 497.355, 1348.588 496.868, 1346.250 496.466 C 1343.682 496.025, 1342 496.119, 1342 496.702 M 726.591 498.852 C 726.302 499.321, 689.713 499.825, 645.282 499.973 C 600.852 500.121, 558.971 500.343, 552.213 500.466 C 545.455 500.589, 539.678 500.287, 539.374 499.796 C 539.066 499.298, 538.238 499.388, 537.500 500 C 536.541 500.796, 535.992 500.796, 535.500 500 C 535.008 499.204, 534.459 499.204, 533.500 500 C 532.773 500.603, 531.932 500.699, 531.631 500.213 C 531.004 499.197, 528.016 499.254, 526.302 500.314 C 525.662 500.709, 524.925 500.688, 524.664 500.266 C 523.782 498.838, 512.769 498.769, 511.773 500.184 C 511.022 501.253, 510.750 501.257, 510.327 500.208 C 509.926 499.216, 509.480 499.187, 508.403 500.081 C 507.370 500.938, 507 500.945, 507 500.107 C 507 499.270, 492.349 498.982, 451.544 499.017 C 399.564 499.061, 396.125 499.172, 396.692 500.782 C 397.573 503.287, 401.002 507.641, 407.893 515 C 411.240 518.575, 413.983 521.803, 413.989 522.173 C 413.995 522.543, 415.237 524.149, 416.750 525.742 C 421.967 531.237, 430.501 541.181, 430.868 542.193 C 431.070 542.751, 432.533 544.448, 434.118 545.962 C 435.703 547.477, 437 549.034, 437 549.423 C 437 549.811, 438.350 551.265, 440 552.653 C 441.650 554.042, 443 555.813, 443 556.589 C 443 557.365, 443.461 558, 444.025 558 C 444.588 558, 445.468 559.101, 445.980 560.448 C 446.492 561.794, 448.056 563.646, 449.455 564.563 C 450.855 565.480, 452 566.769, 452 567.427 C 452 568.085, 453.350 569.622, 455 570.842 C 456.650 572.062, 458 573.541, 458 574.129 C 458 574.717, 459.238 576.421, 460.750 577.917 C 462.262 579.413, 465.750 583.272, 468.500 586.493 C 471.250 589.714, 475.188 594.233, 477.250 596.536 C 479.313 598.839, 481 601.032, 481 601.408 C 481 602.476, 504.233 629, 505.168 629 C 505.626 629, 506 629.422, 506 629.938 C 506 630.454, 507.380 632.367, 509.068 634.188 C 510.755 636.010, 516.263 642.337, 521.308 648.250 L 530.480 659 542.990 659.130 C 549.870 659.201, 587.225 659.153, 626 659.023 C 664.775 658.892, 730.475 658.721, 772 658.643 L 847.500 658.500 847.756 578.627 L 848.012 498.753 802.006 499.423 C 770.200 499.887, 756 499.771, 756 499.047 C 756 497.439, 730.313 497.637, 729.662 499.250 C 729.259 500.250, 729.142 500.250, 729.079 499.250 C 728.989 497.828, 727.383 497.571, 726.591 498.852 M 835.500 937.710 C 829.450 942.930, 813.362 956.633, 799.750 968.162 C 786.138 979.691, 775 989.546, 775 990.062 C 775 990.578, 774.507 991, 773.905 991 C 773.303 991, 770.941 992.767, 768.655 994.926 C 766.370 997.085, 761.274 1001.473, 757.332 1004.676 C 751.494 1009.419, 733.653 1024.836, 717.640 1038.975 C 711.311 1044.563, 709.909 1045.768, 701.892 1052.500 C 697.307 1056.350, 692.069 1060.929, 690.253 1062.675 C 688.436 1064.421, 686.565 1065.996, 686.094 1066.175 C 685.134 1066.540, 673.714 1076.517, 667.696 1082.250 C 665.530 1084.313, 663.403 1086, 662.968 1086 C 662.534 1086, 661.097 1087.284, 659.776 1088.854 C 658.455 1090.424, 656.871 1091.887, 656.256 1092.104 C 654.934 1092.572, 643.730 1102.378, 636.268 1109.598 C 633.371 1112.402, 631 1114.429, 631 1114.103 C 631 1113.777, 629.237 1115.383, 627.082 1117.671 C 624.927 1119.958, 622.958 1121.624, 622.706 1121.373 C 622.455 1121.121, 621.118 1122.260, 619.736 1123.902 C 618.353 1125.545, 617.003 1126.670, 616.736 1126.402 C 616.468 1126.135, 615.118 1127.260, 613.736 1128.902 C 612.353 1130.545, 611.003 1131.670, 610.736 1131.402 C 610.468 1131.135, 609.097 1132.285, 607.689 1133.958 C 606.281 1135.631, 604.835 1137, 604.475 1137 C 603.723 1137, 599.085 1141.017, 594.371 1145.750 C 592.591 1147.537, 590.884 1149, 590.579 1149 C 589.401 1149, 586 1152.507, 586 1153.722 C 586 1154.425, 585.170 1155, 584.155 1155 C 582.185 1155, 579.700 1157.385, 578.683 1160.250 C 578.342 1161.213, 577.189 1162, 576.120 1162 C 574.239 1162, 569 1167.207, 569 1169.077 C 569 1169.585, 568.365 1170, 567.589 1170 C 566.813 1170, 565.042 1171.350, 563.653 1173 C 562.265 1174.650, 560.666 1176, 560.100 1176 C 559.534 1176, 558.589 1176.900, 558 1178 C 557.411 1179.100, 556.290 1180, 555.507 1180 C 554.725 1180, 552.829 1181.575, 551.293 1183.500 C 549.757 1185.425, 547.957 1187, 547.293 1187 C 546.629 1187, 544.829 1188.575, 543.293 1190.500 C 541.757 1192.425, 539.948 1194, 539.273 1194 C 538.598 1194, 537.309 1195.125, 536.408 1196.500 C 535.507 1197.875, 534.170 1199, 533.436 1199 C 532.702 1199, 530.900 1200.575, 529.432 1202.500 C 527.964 1204.425, 526.151 1206, 525.404 1206 C 524.657 1206, 523.309 1207.125, 522.408 1208.500 C 521.507 1209.875, 520.371 1211, 519.882 1211 C 518.179 1211, 499.792 1227.506, 497.060 1231.487 C 495.546 1233.694, 493.828 1235.401, 493.243 1235.280 C 492.658 1235.159, 490.463 1236.959, 488.366 1239.280 C 486.269 1241.601, 484.400 1243.357, 484.213 1243.181 C 483.635 1242.639, 475 1250.978, 475 1252.080 C 475 1252.651, 474.595 1252.868, 474.101 1252.562 C 473.606 1252.257, 471.849 1253.547, 470.195 1255.431 C 468.541 1257.314, 466.984 1258.651, 466.734 1258.401 C 466.485 1258.151, 464.540 1259.872, 462.413 1262.224 C 460.286 1264.576, 458.245 1266.403, 457.877 1266.285 C 457.509 1266.166, 455.164 1268.256, 452.664 1270.928 C 450.165 1273.600, 447.924 1275.590, 447.684 1275.351 C 447.445 1275.111, 446.068 1276.319, 444.624 1278.034 C 443.181 1279.750, 442 1280.869, 442 1280.522 C 442 1279.912, 416.958 1302.483, 404.580 1314.250 C 401.253 1317.412, 398.280 1320, 397.973 1320 C 397.667 1320, 395.410 1322.073, 392.958 1324.606 C 390.506 1327.139, 380.625 1336.443, 371 1345.280 C 349.883 1364.670, 340.241 1373.778, 333.452 1380.750 C 330.640 1383.638, 327.897 1386, 327.357 1386 C 326.817 1386, 322.725 1389.713, 318.265 1394.250 C 313.804 1398.787, 306.712 1405.802, 302.504 1409.839 C 297.780 1414.371, 295.061 1417.717, 295.396 1418.589 C 295.804 1419.653, 298.057 1420, 304.548 1420 C 309.284 1420, 321.110 1420.227, 330.829 1420.504 C 365.633 1421.497, 482.309 1421.990, 483.393 1421.149 C 484.904 1419.978, 506.221 1419.942, 507.628 1421.108 C 508.301 1421.665, 509.715 1421.687, 511.128 1421.161 C 513.491 1420.282, 533.433 1420.531, 534.933 1421.458 C 535.366 1421.726, 536.026 1421.641, 536.398 1421.269 C 536.770 1420.897, 606.358 1420.692, 691.037 1420.814 L 845 1421.037 845 1341.018 L 845 1261 813.250 1260.933 C 741.676 1260.783, 739.819 1260.746, 741.195 1259.489 C 741.913 1258.833, 748.800 1252.954, 756.500 1246.424 C 772.940 1232.482, 808.711 1201.057, 814.751 1195.250 C 816.038 1194.013, 817.517 1193, 818.037 1193 C 818.557 1193, 819.545 1192.100, 820.232 1191 C 820.919 1189.900, 821.887 1189, 822.382 1189 C 822.878 1189, 824.574 1187.650, 826.150 1186 C 827.727 1184.350, 829.431 1183, 829.936 1183 C 830.441 1183, 831.740 1181.875, 832.821 1180.500 C 833.903 1179.125, 835.173 1178, 835.644 1177.999 C 836.115 1177.999, 838.613 1175.945, 841.195 1173.435 L 845.889 1168.870 846.195 1048.685 C 846.363 982.583, 846.500 928.437, 846.500 928.360 C 846.500 928.283, 841.550 932.491, 835.500 937.710 M 1044.250 1261.798 L 1038 1262.095 1038 1341.548 C 1038 1385.246, 1038.112 1421.033, 1038.250 1421.073 C 1038.388 1421.114, 1136.337 1421.358, 1255.915 1421.616 C 1375.493 1421.874, 1473.674 1422.299, 1474.096 1422.559 C 1474.517 1422.820, 1475.158 1422.553, 1475.520 1421.968 C 1475.978 1421.227, 1476.608 1421.260, 1477.589 1422.074 C 1478.365 1422.718, 1479 1422.828, 1479 1422.318 C 1479 1421.247, 1485.945 1421.230, 1487.670 1422.296 C 1488.308 1422.690, 1489.034 1422.447, 1489.284 1421.756 C 1489.649 1420.748, 1490.160 1420.749, 1491.869 1421.758 C 1493.041 1422.451, 1494 1422.646, 1494 1422.192 C 1494 1421.739, 1495.912 1421.338, 1498.250 1421.302 C 1505.404 1421.192, 1505.844 1421.066, 1506.515 1418.953 C 1507.260 1416.605, 1500.906 1408.050, 1497.817 1407.242 C 1496.818 1406.981, 1496 1406.019, 1496 1405.106 C 1496 1403.369, 1492.693 1400, 1490.989 1400 C 1490.445 1400, 1490 1399.335, 1490 1398.523 C 1490 1397.711, 1488.875 1396.309, 1487.500 1395.408 C 1486.125 1394.507, 1485 1393.197, 1485 1392.498 C 1485 1391.798, 1483.654 1390.162, 1482.009 1388.863 C 1480.364 1387.563, 1479.014 1386.046, 1479.009 1385.491 C 1479.004 1384.935, 1478.100 1383.919, 1477 1383.232 C 1475.900 1382.545, 1475 1381.325, 1475 1380.521 C 1475 1379.718, 1473.650 1378.062, 1472 1376.842 C 1470.350 1375.622, 1469 1374.044, 1469 1373.335 C 1469 1372.626, 1467.875 1371.309, 1466.500 1370.408 C 1465.125 1369.507, 1464 1368.160, 1464 1367.415 C 1464 1366.670, 1462.650 1365.062, 1461 1363.842 C 1459.350 1362.622, 1458 1361.044, 1458 1360.335 C 1458 1359.626, 1456.875 1358.309, 1455.500 1357.408 C 1454.125 1356.507, 1453 1355.157, 1453 1354.408 C 1453 1353.659, 1451.875 1352.309, 1450.500 1351.408 C 1449.125 1350.507, 1448 1349.198, 1448 1348.500 C 1448 1347.802, 1446.875 1346.493, 1445.500 1345.592 C 1444.125 1344.691, 1443 1343.447, 1443 1342.828 C 1443 1342.209, 1441.415 1340.082, 1439.478 1338.101 C 1434.279 1332.786, 1433.393 1331.689, 1432.658 1329.655 C 1432.290 1328.640, 1431.117 1327.582, 1430.051 1327.303 C 1428.985 1327.024, 1427.975 1325.829, 1427.806 1324.648 C 1427.638 1323.467, 1426.487 1322.056, 1425.250 1321.513 C 1424.013 1320.970, 1423 1319.979, 1423 1319.311 C 1423 1318.643, 1421.356 1316.500, 1419.347 1314.548 C 1417.337 1312.597, 1416.048 1311, 1416.481 1311 C 1416.915 1311, 1416.060 1310.049, 1414.582 1308.886 C 1413.104 1307.723, 1412.070 1306.596, 1412.285 1306.382 C 1412.500 1306.167, 1410.049 1303.256, 1406.838 1299.913 C 1403.627 1296.570, 1401 1293.462, 1401 1293.006 C 1401 1292.551, 1399.615 1291.013, 1397.923 1289.589 C 1396.231 1288.165, 1395.209 1287, 1395.652 1287 C 1396.095 1287, 1395.494 1285.987, 1394.316 1284.750 C 1388.390 1278.525, 1386.275 1276.058, 1386.592 1275.741 C 1386.784 1275.549, 1384.367 1272.571, 1381.221 1269.124 L 1375.500 1262.855 1357.255 1262.840 C 1345.963 1262.830, 1338.769 1262.436, 1338.380 1261.805 C 1337.984 1261.165, 1337.436 1261.290, 1336.906 1262.143 C 1336.218 1263.248, 1335.684 1263.266, 1334.031 1262.242 C 1332.831 1261.498, 1332 1261.396, 1332 1261.992 C 1332 1262.546, 1331.325 1263, 1330.500 1263 C 1329.675 1263, 1329 1262.581, 1329 1262.070 C 1329 1261.276, 1091.153 1261.565, 1070 1262.384 C 1066.425 1262.523, 1063.115 1262.437, 1062.644 1262.193 C 1061.534 1261.620, 1052.203 1261.419, 1044.250 1261.798" stroke="none" fill="#0464c3" fill-rule="evenodd"/><path d="M 1485.250 137.742 C 1488.963 137.934, 1495.037 137.934, 1498.750 137.742 C 1502.463 137.549, 1499.425 137.392, 1492 137.392 C 1484.575 137.392, 1481.537 137.549, 1485.250 137.742 M 849.991 192.117 C 849.986 201.678, 849.556 264.850, 849.034 332.500 C 848.513 400.150, 847.562 615.925, 846.920 812 C 846.065 1073.339, 845.453 1168.885, 844.627 1169.942 C 843.740 1171.077, 843.795 1171.206, 844.884 1170.550 C 846.058 1169.843, 846.172 1178.533, 845.638 1228.108 C 845.291 1260.224, 844.721 1389.832, 844.371 1516.127 L 843.735 1745.755 930.617 1746.510 C 1023.331 1747.317, 1426.216 1746.262, 1446.798 1745.159 L 1459.096 1744.500 1461.625 1737.500 C 1463.016 1733.650, 1464.389 1729.600, 1464.676 1728.500 C 1465.256 1726.280, 1469.759 1713.629, 1471.083 1710.500 C 1471.944 1708.466, 1474.043 1702.474, 1478.615 1689 C 1480.015 1684.875, 1482.024 1679.592, 1483.080 1677.261 C 1484.136 1674.929, 1485.002 1672.679, 1485.005 1672.261 C 1485.011 1671.311, 1491.658 1653.217, 1492.999 1650.500 C 1493.542 1649.400, 1494.705 1646.475, 1495.584 1644 C 1505.158 1617.030, 1518.266 1580.866, 1521.095 1573.617 C 1522.143 1570.931, 1523 1567.821, 1523 1566.706 L 1523 1564.679 1280.500 1565.394 L 1038 1566.109 1038 1414.102 L 1038 1262.095 1044.250 1261.740 L 1050.500 1261.385 1044.250 1261.193 L 1038 1261 1038 880.139 L 1038 499.277 1040.250 499.644 C 1041.487 499.846, 1068.825 499.626, 1101 499.154 L 1159.500 498.297 1099 498.209 L 1038.500 498.121 1038.243 428.061 L 1037.986 358 1049.743 358.020 C 1056.209 358.032, 1124.950 358.453, 1202.500 358.957 C 1280.050 359.461, 1372.030 360.014, 1406.899 360.187 L 1470.299 360.500 1471.731 356.500 C 1472.519 354.300, 1474.211 349.125, 1475.491 345 C 1483.695 318.565, 1486.051 310.460, 1487.991 302 C 1489.190 296.775, 1490.559 291.375, 1491.035 290 C 1491.511 288.625, 1492.848 283, 1494.008 277.500 C 1495.167 272, 1496.804 264.350, 1497.646 260.500 C 1498.488 256.650, 1499.405 252.375, 1499.684 251 C 1500.225 248.330, 1500.333 247.871, 1501.333 244 C 1501.688 242.625, 1502.189 240.375, 1502.446 239 C 1502.702 237.625, 1504.337 231.325, 1506.078 225 C 1507.819 218.675, 1509.576 211.925, 1509.983 210 C 1510.741 206.417, 1513.637 197.040, 1517.188 186.675 C 1518.285 183.471, 1518.891 180.558, 1518.533 180.200 C 1518.176 179.842, 1475.497 179.218, 1423.692 178.813 C 1371.886 178.407, 1301.375 177.583, 1267 176.981 C 1232.625 176.379, 1124.737 175.628, 1027.250 175.311 L 850 174.735 849.991 192.117 M 1236.500 498 C 1236.108 498.635, 1238.803 499, 1243.882 499 C 1248.282 499, 1252.160 498.550, 1252.500 498 C 1252.892 497.365, 1250.197 497, 1245.118 497 C 1240.718 497, 1236.840 497.450, 1236.500 498 M 1257.566 498.107 C 1258.047 498.885, 1262.584 499.012, 1272.867 498.532 C 1280.906 498.157, 1287.675 497.659, 1287.908 497.425 C 1288.142 497.191, 1281.257 497, 1272.608 497 C 1261.366 497, 1257.077 497.316, 1257.566 498.107 M 1358.789 497.741 C 1362.248 497.937, 1367.648 497.936, 1370.789 497.738 C 1373.930 497.540, 1371.100 497.380, 1364.500 497.382 C 1357.900 497.384, 1355.330 497.546, 1358.789 497.741 M 1301.750 498.747 C 1308.487 498.920, 1319.513 498.920, 1326.250 498.747 C 1332.987 498.574, 1327.475 498.432, 1314 498.432 C 1300.525 498.432, 1295.013 498.574, 1301.750 498.747 M 539.338 499.672 C 540.054 500.387, 693.191 500.143, 693.909 499.424 C 694.142 499.191, 659.308 499, 616.500 499 C 573.692 499, 538.969 499.302, 539.338 499.672 M 768.250 499.746 C 773.612 499.925, 782.388 499.925, 787.750 499.746 C 793.112 499.566, 788.725 499.419, 778 499.419 C 767.275 499.419, 762.888 499.566, 768.250 499.746 M 1501.250 499.742 C 1504.963 499.934, 1511.037 499.934, 1514.750 499.742 C 1518.463 499.549, 1515.425 499.392, 1508 499.392 C 1500.575 499.392, 1497.537 499.549, 1501.250 499.742 M 396 501.086 C 396 502.835, 412.968 523.365, 413.759 522.574 C 414.277 522.057, 411.922 519.201, 403.979 510.715 C 401.515 508.083, 398.712 504.490, 397.750 502.731 C 396.788 500.971, 396 500.231, 396 501.086 M 845.389 911.500 C 845.390 918.650, 845.550 921.444, 845.742 917.708 C 845.935 913.973, 845.934 908.123, 845.739 904.708 C 845.545 901.294, 845.387 904.350, 845.389 911.500 M 844.423 1208.500 C 844.424 1220.050, 844.570 1224.638, 844.747 1218.696 C 844.924 1212.753, 844.923 1203.303, 844.745 1197.696 C 844.567 1192.088, 844.422 1196.950, 844.423 1208.500 M 1062.339 1261.672 C 1063.029 1262.362, 1160.218 1262.115, 1160.911 1261.422 C 1161.162 1261.171, 1138.950 1260.990, 1111.552 1261.019 C 1084.154 1261.047, 1062.008 1261.342, 1062.339 1261.672 M 1354.250 1262.742 C 1357.963 1262.934, 1364.037 1262.934, 1367.750 1262.742 C 1371.463 1262.549, 1368.425 1262.392, 1361 1262.392 C 1353.575 1262.392, 1350.537 1262.549, 1354.250 1262.742 M 483.398 1421.166 C 483.114 1421.625, 488.560 1422, 495.500 1422 C 502.881 1422, 507.883 1421.620, 507.552 1421.084 C 506.848 1419.944, 484.105 1420.021, 483.398 1421.166 M 1244.750 1523.748 C 1254.237 1523.913, 1269.763 1523.913, 1279.250 1523.748 C 1288.737 1523.584, 1280.975 1523.450, 1262 1523.450 C 1243.025 1523.450, 1235.263 1523.584, 1244.750 1523.748" stroke="none" fill="#5b1c84" fill-rule="evenodd"/></svg>